HIERARCHY
ROOT Hips
{
	OFFSET -0.179506 -22.333345 2.821913
	CHANNELS 6 Xposition Yposition Zposition Zrotation Yrotation Xrotation 
	JOINT LeftUpLeg
	{
		OFFSET 6.951974 -9.140623 -0.681533
		CHANNELS 3 Zrotation Yrotation Xrotation
		JOINT LeftLeg
		{
			OFFSET 3.427654 -37.519855 -0.449580
			CHANNELS 3 Zrotation Yrotation Xrotation
			JOINT LeftFoot
			{
				OFFSET -1.359570 -39.796059 -4.369333
				CHANNELS 3 Zrotation Yrotation Xrotation
				JOINT LeftToe
				{
					OFFSET 2.635814 -5.579078 11.928840
					CHANNELS 3 Zrotation Yrotation Xrotation
					End Site
					{
						OFFSET 0.000000 0.000000 0.000000
					}
				}
			}
		}
	}
	JOINT RightUpLeg
	{
		OFFSET -6.767048 -9.052170 -0.431982
		CHANNELS 3 Zrotation Yrotation Xrotation
		JOINT RightLeg
		{
			OFFSET -3.829005 -38.256897 -0.885003
			CHANNELS 3 Zrotation Yrotation Xrotation
			JOINT RightFoot
			{
				OFFSET 1.577377 -39.841461 -4.231180
				CHANNELS 3 Zrotation Yrotation Xrotation
				JOINT RightToe
				{
					OFFSET -2.537174 -4.814398 12.334795
					CHANNELS 3 Zrotation Yrotation Xrotation
					End Site
					{
						OFFSET 0.000000 0.000000 0.000000
					}
				}
			}
		}
	}
	JOINT Spine
	{
		OFFSET -0.253288 10.896323 -2.669631
		CHANNELS 3 Zrotation Yrotation Xrotation
		JOINT Spine1
		{
			OFFSET 0.548704 13.518043 0.109247
			CHANNELS 3 Zrotation Yrotation Xrotation
			JOINT Spine2
			{
				OFFSET 0.145701 5.292222 2.542457
				CHANNELS 3 Zrotation Yrotation Xrotation
				JOINT Neck
				{
					OFFSET -0.277840 21.387037 -4.285703
					CHANNELS 3 Zrotation Yrotation Xrotation
					JOINT Head
					{
						OFFSET 0.515184 6.496960 5.134897
						CHANNELS 3 Zrotation Yrotation Xrotation
						End Site
						{
							OFFSET 0.000000 0.000000 0.000000
						}
					}
				}
				JOINT LeftShoulder
				{
					OFFSET 7.884473 12.174932 -3.408961
					CHANNELS 3 Zrotation Yrotation Xrotation
					JOINT LeftArm
					{
						OFFSET 9.097692 3.046888 -0.886815
						CHANNELS 3 Zrotation Yrotation Xrotation
						JOINT LeftForeArm
						{
							OFFSET 25.961220 -1.277207 -2.745643
							CHANNELS 3 Zrotation Yrotation Xrotation
							JOINT LeftHand
							{
								OFFSET 24.923361 0.898606 -0.117091
								CHANNELS 3 Zrotation Yrotation Xrotation
								End Site
								{
									OFFSET 0.000000 0.000000 0.000000
								}
							}
						}
					}
				}
				JOINT RightShoulder
				{
					OFFSET -8.175920 11.883285 -3.861528
					CHANNELS 3 Zrotation Yrotation Xrotation
					JOINT RightArm
					{
						OFFSET -9.601238 3.255117 -0.914307
						CHANNELS 3 Zrotation Yrotation Xrotation
						JOINT RightForeArm
						{
							OFFSET -25.374195 -1.332924 -2.140099
							CHANNELS 3 Zrotation Yrotation Xrotation
							JOINT RightHand
							{
								OFFSET -25.529810 0.777228 -0.555919
								CHANNELS 3 Zrotation Yrotation Xrotation
								End Site
								{
									OFFSET 0.000000 0.000000 0.000000
								}
							}
						}
					}
				}
			}
		}
	}
}
MOTION
Frames: 13
Frame Time: 0.033333
-61.279869 56.572083 130.669952 -110.530657 18.257531 74.037047 25.832644 -1.256815 20.841336 -12.292259 -10.087085 44.666228 -15.000578 10.960324 14.064304 nan nan nan -34.007205 -21.009778 -67.986200 -17.910308 -27.459723 122.686418 5.352153 -0.322395 -33.971709 nan nan nan 7.630628 -14.627693 30.475387 4.350916 -0.228474 -5.414904 1.839734 -5.201297 -5.625295 1.381092 -0.190549 17.328768 -0.438381 -2.149577 4.919419 15.688991 -30.432560 -7.288588 -11.464050 -30.773844 -19.040390 44.277649 -48.977929 -41.325203 29.623903 -23.925923 -20.470166 -22.206845 26.537071 -11.629419 7.727076 22.766927 -15.415288 -28.045276 61.527527 -17.265471 -35.245168 28.173347 -5.586983 
-62.714577 58.256058 132.310577 -110.879796 18.005249 73.332576 25.351717 -1.255897 19.354206 -13.170496 -8.446978 50.397331 -14.928785 10.461813 12.753649 nan nan nan -33.752457 -20.318008 -67.960667 -18.035436 -27.246483 122.284860 5.241545 -0.359519 -33.920480 nan nan nan 7.862890 -14.002009 31.266144 3.998124 0.427725 -5.858414 1.407041 -4.914807 -4.557547 1.262358 -0.308210 16.800888 0.024869 -2.752584 5.035871 14.117114 -30.866896 -7.420107 -11.960038 -31.667236 -18.307149 42.479433 -48.490871 -40.461829 27.893780 -23.477407 -20.617277 -20.824939 26.438652 -11.173868 7.987635 21.652165 -14.740586 -29.744484 62.407952 -18.279230 -34.353810 27.693596 -5.563683 
-64.217796 59.950394 133.834869 -110.857124 17.791054 72.753849 24.920402 -1.277085 17.658903 -13.609320 -6.753636 56.045241 -14.685165 9.991492 11.453145 nan nan nan -33.860939 -19.983184 -67.539276 -18.209992 -27.110342 121.977585 5.155288 -0.223232 -33.841332 nan nan nan 8.048093 -13.621698 31.776193 3.793761 0.579984 -5.425711 0.950396 -4.689204 -4.182685 1.271944 -0.654130 16.441690 0.302686 -3.159697 5.486887 12.638874 -30.941882 -7.686294 -12.662472 -32.157557 -17.143127 39.893123 -48.056728 -38.146170 27.456961 -23.818579 -20.007098 -19.373580 26.794913 -10.501924 8.238995 20.763609 -13.989848 -31.668332 62.756148 -19.991511 -34.014286 27.724824 -5.631863 
-65.682777 61.643478 135.309586 -110.987041 17.664797 72.186624 24.668286 -1.385843 15.943313 -13.834571 -4.735684 61.360079 -14.369906 9.776536 10.473227 nan nan nan -33.813209 -19.395134 -67.185208 -18.366584 -27.079142 121.524662 5.166952 -0.167638 -33.648581 nan nan nan 8.011613 -13.349023 32.615259 3.715148 0.712833 -5.285196 0.620668 -4.289637 -3.531877 1.395968 -0.883210 15.785354 0.527088 -3.740909 5.903388 11.660185 -30.461738 -8.518263 -14.081792 -32.805616 -15.492953 37.626432 -47.515970 -36.436898 26.773291 -23.613449 -19.174175 -18.197177 26.742659 -10.520026 8.934126 20.373812 -12.713022 -33.570025 63.018505 -21.823398 -33.406379 27.424531 -4.314439 
-67.102165 63.338177 136.728912 -111.367591 17.581455 71.649409 24.635771 -1.289323 14.170874 -13.666216 -2.542377 66.446512 -14.224391 9.618205 9.655145 nan nan nan -33.397293 -18.566502 -67.158857 -18.249067 -26.993394 120.866532 5.195741 -0.093719 -33.274795 nan nan nan 7.834651 -13.109839 33.909577 3.631992 1.035531 -5.780724 0.433255 -3.683319 -2.899414 1.509500 -1.116073 15.091425 0.601387 -4.353755 6.585160 10.749095 -29.933305 -9.264034 -15.825902 -33.434782 -13.808276 34.871382 -46.793579 -33.949711 26.793767 -23.708426 -18.679962 -17.092293 26.477297 -10.733106 9.717030 20.178424 -11.522753 -34.033604 63.510666 -22.179555 -33.734683 27.134577 -3.945496 
-68.489037 65.042862 138.103516 -111.717968 17.475639 71.170041 24.626250 -0.973265 12.256302 -13.279946 -0.740187 71.468173 -14.028010 9.375873 8.795015 nan nan nan -32.861387 -17.737062 -67.193619 -18.131988 -26.877555 120.136037 5.076572 -0.117336 -32.967272 nan nan nan 7.539750 -12.873170 35.504558 3.485541 1.326175 -6.678676 0.417154 -3.165902 -2.472695 1.571965 -1.504065 14.701623 0.679922 -4.485128 7.114794 9.609467 -29.452501 -9.581599 -17.396873 -33.769274 -12.374970 32.061569 -46.273082 -31.404893 26.549945 -22.970411 -17.968690 -15.965277 26.388653 -10.675245 10.432598 20.065124 -10.494301 -33.860613 63.925767 -21.897511 -34.174272 26.588411 -4.341404 
-69.850449 66.727890 139.417923 -111.984095 17.329381 70.647667 24.569664 -0.684986 10.288082 -13.066159 0.839040 76.410707 -13.590358 9.144949 7.809040 nan nan nan -32.417010 -16.897637 -67.091947 -18.090697 -26.825379 119.386886 5.017855 -0.429720 -32.622289 nan nan nan 7.105946 -12.628757 37.273178 3.356678 1.511648 -7.720955 0.497551 -2.866195 -1.978049 1.646546 -1.879477 14.279093 0.641827 -4.299952 7.660927 8.490674 -28.773131 -9.748605 -18.876203 -33.794170 -11.033219 29.474571 -45.947992 -29.183162 25.822535 -22.089893 -16.098555 -14.852795 26.365519 -10.492790 11.058188 20.352772 -9.617990 -33.350917 63.790293 -21.283087 -33.574790 26.102142 -3.323339 
-71.207718 68.414589 140.658005 -112.171314 17.206057 70.126216 24.594335 -0.538651 8.294478 -12.837350 2.431376 81.142927 -13.190419 8.912967 6.752133 nan nan nan -32.050590 -16.106682 -66.805404 -17.976131 -26.858060 118.607890 5.040968 -0.672485 -32.095349 nan nan nan 6.701802 -12.238831 38.862188 3.375197 1.649570 -8.499512 0.546549 -2.770633 -1.399771 1.933522 -1.937051 13.568149 0.507088 -4.489211 8.391527 7.515438 -27.988760 -9.974954 -20.295086 -33.822324 -9.574263 26.838561 -45.117770 -26.885346 25.581774 -21.864872 -15.300094 -13.757595 26.211488 -10.556297 11.773001 20.958512 -8.447587 -32.974523 63.310905 -20.755024 -32.852693 25.770490 -2.526179 
-72.610641 70.095879 141.782455 -112.000106 17.130561 69.902704 24.606363 -0.456889 5.922563 -12.539250 3.812181 85.817682 -12.581321 8.509091 5.339177 nan nan nan -31.812725 -15.734400 -66.434928 -17.661809 -26.927533 117.790650 5.048616 -0.716964 -31.515252 nan nan nan 6.499019 -11.876361 39.923022 3.480844 1.593682 -9.017083 0.551121 -2.735040 -0.913997 2.104467 -2.116529 13.143772 0.532120 -4.632483 8.759941 6.456299 -27.478283 -9.962490 -21.499086 -33.678857 -8.330036 24.198352 -43.899375 -24.356718 25.852231 -21.852446 -15.574240 -12.715550 26.045004 -10.552076 12.529047 21.356525 -7.426025 -32.431036 63.057692 -19.993346 -32.223226 25.470576 -2.580653 
-73.979744 71.787537 142.846588 -111.844006 17.033813 69.765457 24.540805 -0.349203 3.382871 -12.354776 5.076015 90.283188 -11.966222 8.034419 3.817293 nan nan nan -31.443534 -15.346431 -66.244242 -17.303642 -26.886073 116.956859 4.988099 -0.712675 -30.963973 nan nan nan 6.240101 -11.494082 41.199356 3.543416 1.516520 -9.882368 0.650748 -2.575207 -0.574653 2.106407 -2.535653 13.006699 0.618198 -4.578296 8.902569 5.376541 -27.228001 -9.743533 -22.903446 -33.295180 -7.200902 21.964244 -42.542254 -21.816988 25.739876 -22.069211 -14.945574 -11.767931 26.031718 -10.387085 13.270956 21.417137 -6.724537 -31.343068 63.008077 -18.527788 -30.774380 24.971156 -2.129242 
-75.341476 73.497444 143.882858 -111.536717 17.012724 69.595031 24.301598 -0.438213 0.817480 -11.934993 6.078987 94.442597 -11.770058 7.408980 2.348932 nan nan nan -31.112919 -15.001498 -65.731934 -16.919787 -26.778609 116.080012 5.210705 -0.366943 -30.491999 nan nan nan 6.006349 -11.000439 42.516913 3.737591 1.217073 -10.601210 0.866745 -2.523657 -0.446553 2.135154 -2.900862 13.175414 0.639707 -4.551592 8.809837 4.166403 -27.186636 -9.492765 -24.216725 -32.532220 -6.035548 20.150629 -41.297546 -19.950818 24.710549 -22.244859 -13.395853 -10.788636 26.449535 -10.123422 13.881282 21.119417 -5.899109 -30.874164 62.898060 -17.840152 -28.687213 24.178870 -2.324475 
-76.688110 75.216209 144.816177 -111.306959 16.976996 69.516020 24.271046 -0.391432 -1.841602 -11.425417 7.182025 98.445908 -11.844133 6.784269 0.679891 nan nan nan -30.657886 -14.618537 -65.468470 -16.399748 -26.572131 115.133309 5.510895 -0.060479 -29.988550 nan nan nan 5.737614 -10.487901 43.727706 3.888161 1.056726 -11.472782 1.051126 -2.393824 0.025941 2.426551 -3.077997 13.095002 0.698631 -4.844478 8.837228 3.081486 -27.044470 -9.316813 -25.434981 -32.269860 -5.241599 18.397401 -39.563862 -18.180777 23.231203 -22.629795 -12.398271 -9.823236 26.484758 -10.036370 14.653666 21.039919 -4.993194 -30.179885 62.520124 -16.980985 -27.729685 23.673419 -3.439154 
-78.089775 76.929314 145.667755 -110.848609 17.026329 69.535450 24.286172 -0.459740 -4.659379 -10.722918 8.141824 102.248195 -11.831801 6.147687 -0.562747 nan nan nan -30.233820 -14.478541 -65.022893 -16.027757 -26.443375 114.147181 5.673106 -0.075078 -29.366297 nan nan nan 5.733666 -10.175495 44.730793 4.001343 0.878400 -12.261256 1.102101 -2.311954 0.484400 2.433948 -3.501999 13.148647 0.946792 -4.954703 8.620530 1.916482 -26.896804 -8.991326 -26.691624 -32.284829 -4.284640 16.394111 -37.350947 -16.290863 22.845813 -22.138113 -12.772982 -8.765087 26.359600 -9.739204 15.302331 21.209045 -4.226642 -28.842491 61.838160 -15.800106 -28.154929 23.545483 -4.549083 
